<?xml version="1.0" encoding="utf-8"?>
<!-- Generator: Adobe Illustrator 19.0.0, SVG Export Plug-In . SVG Version: 6.00 Build 0)  -->
<svg version="1.1" id="Layer_1" xmlns="http://www.w3.org/2000/svg" xmlns:xlink="http://www.w3.org/1999/xlink" x="0px" y="0px"
	 viewBox="0 0 120 19.3" style="enable-background:new 0 0 120 19.3;" xml:space="preserve">
<g id="XMLID_50_">
	<path id="XMLID_65_" d="M6.5,12.4c0,0.4,0.1,0.8,0.2,1.1c0.2,0.4,0.5,0.7,0.9,0.9C8,14.6,8.5,14.6,9,14.6c0.2,0,0.5,0,0.7-0.1
		c0.2,0,0.5-0.1,0.7-0.2c0.2-0.1,0.4-0.3,0.5-0.5s0.2-0.4,0.2-0.7c0-0.2-0.1-0.4-0.2-0.5s-0.3-0.3-0.5-0.4c-0.3-0.1-0.6-0.3-1-0.4
		c-0.4-0.1-1-0.3-1.8-0.5l-0.3-0.1c-0.9-0.3-1.6-0.5-2.1-0.7c-0.5-0.2-1-0.5-1.5-0.8C3.2,9.4,2.9,9,2.6,8.5C2.3,8,2.1,7.3,2.1,6.6
		c0-0.9,0.2-1.7,0.5-2.4C3,3.5,3.5,3,4.1,2.5c0.6-0.4,1.3-0.8,2.1-1C7,1.3,7.8,1.2,8.7,1.2c0.9,0,1.8,0.1,2.6,0.3
		C12,1.7,12.7,2,13.3,2.4c0.6,0.4,1.1,1,1.5,1.6c0.4,0.7,0.6,1.5,0.6,2.5h-4.7c0,0,0-0.1,0-0.1c0-0.1,0-0.1,0-0.1
		c0-0.4-0.2-0.8-0.6-1.1C9.9,5.1,9.7,5,9.4,4.9C9.2,4.9,8.9,4.8,8.6,4.8c-0.5,0-0.9,0.1-1.2,0.2C7,5.2,6.8,5.5,6.8,5.9
		c0,0.4,0.3,0.7,0.8,0.9C8.2,7.1,9,7.3,10.1,7.6c0.7,0.2,1.2,0.3,1.5,0.4c0.7,0.2,1.2,0.4,1.8,0.6c0.5,0.2,1,0.5,1.4,0.9
		c0.4,0.4,0.8,0.8,1,1.3c0.3,0.5,0.4,1.2,0.4,1.9c0,1-0.2,1.9-0.6,2.6c-0.4,0.7-1,1.3-1.7,1.7c-0.7,0.4-1.5,0.8-2.4,1
		c-0.9,0.2-1.8,0.3-2.8,0.3c-0.6,0-1.3-0.1-2.1-0.2c-0.8-0.1-1.5-0.4-2.3-0.8c-0.8-0.4-1.4-1-2-1.8c-0.5-0.8-0.8-1.8-0.8-3H6.5z"/>
	<path id="XMLID_63_" d="M17.8,1.6h5v5.6h0l4.5-5.6h6.2L27.6,8l6.8,9.9h-6.2l-4-6.3L22.8,13v4.8h-5V1.6z"/>
	<path id="XMLID_61_" d="M35.4,1.6h5v16.2h-5V1.6z"/>
	<path id="XMLID_59_" d="M42.9,1.6H50l2.3,9.5h0l2.3-9.5h7.1v16.2h-4.7V7.4h0l-2.8,10.4h-3.7L47.7,7.4h0v10.4h-4.7V1.6z"/>
	<path id="XMLID_57_" d="M64.4,1.6h7.1l2.3,9.5h0l2.3-9.5h7.1v16.2h-4.7V7.4h0l-2.8,10.4H72L69.1,7.4h0v10.4h-4.7V1.6z"/>
	<path id="XMLID_54_" d="M86,6.3c0.4-1,1-1.9,1.7-2.7c0.7-0.8,1.6-1.3,2.6-1.8c1-0.4,2.1-0.6,3.3-0.6s2.3,0.2,3.3,0.6
		c1,0.4,1.9,1,2.6,1.8c0.7,0.8,1.3,1.7,1.7,2.7c0.4,1,0.6,2.2,0.6,3.4s-0.2,2.4-0.6,3.4c-0.4,1-1,1.9-1.7,2.7
		c-0.7,0.8-1.6,1.3-2.6,1.8c-1,0.4-2.1,0.6-3.3,0.6s-2.3-0.2-3.3-0.6c-1-0.4-1.9-1-2.6-1.8c-0.7-0.8-1.3-1.7-1.7-2.7
		c-0.4-1-0.6-2.2-0.6-3.4S85.6,7.4,86,6.3z M90.7,11.9c0.2,0.6,0.5,1.1,0.8,1.4c0.3,0.3,0.7,0.6,1,0.7c0.4,0.1,0.7,0.2,1.1,0.2
		s0.7-0.1,1.1-0.2c0.4-0.1,0.7-0.4,1-0.7c0.3-0.3,0.6-0.8,0.8-1.4c0.2-0.6,0.3-1.3,0.3-2.2c0-0.8-0.1-1.6-0.3-2.2s-0.5-1.1-0.8-1.4
		c-0.3-0.3-0.7-0.6-1-0.7c-0.4-0.1-0.7-0.2-1.1-0.2s-0.7,0.1-1.1,0.2c-0.4,0.1-0.7,0.4-1,0.7c-0.3,0.3-0.6,0.8-0.8,1.4
		s-0.3,1.3-0.3,2.2C90.4,10.6,90.5,11.3,90.7,11.9z"/>
	<path id="XMLID_51_" d="M108.5,1.6h4.9l5.9,16.2h-5.2l-0.7-2.3h-5.2l-0.7,2.3h-5L108.5,1.6z M112.4,12l-1.5-5h0l-1.6,5H112.4z"/>
</g>
</svg>
