<?xml version="1.0" encoding="utf-8"?>
<!-- Generator: Adobe Illustrator 19.0.0, SVG Export Plug-In . SVG Version: 6.00 Build 0)  -->
<svg version="1.1" id="Layer_1" xmlns="http://www.w3.org/2000/svg" xmlns:xlink="http://www.w3.org/1999/xlink" x="0px" y="0px"
	 viewBox="0 0 120 20" style="enable-background:new 0 0 120 20;" xml:space="preserve">
<g id="XMLID_5_">
	<path id="XMLID_30_" d="M4.8,12.9c0,1.1,0.4,1.9,1.1,2.4c0.7,0.5,1.6,0.8,2.7,0.8c0.4,0,0.7,0,1.1-0.1c0.4-0.1,0.7-0.2,1.1-0.3
		c0.3-0.2,0.6-0.4,0.8-0.7c0.2-0.3,0.3-0.6,0.3-1c0-0.4-0.1-0.7-0.3-1s-0.5-0.5-0.8-0.7c-0.4-0.2-0.7-0.3-1.1-0.5
		c-0.4-0.1-1-0.3-1.7-0.4c-0.5-0.1-0.8-0.2-1.1-0.3c-0.7-0.2-1.4-0.4-2-0.6C4.3,10.3,3.7,10,3.3,9.6C2.8,9.2,2.4,8.8,2.1,8.2
		C1.9,7.7,1.7,7,1.7,6.3c0-0.8,0.2-1.6,0.5-2.2c0.4-0.7,0.8-1.2,1.5-1.6C4.3,2,5,1.6,5.8,1.4s1.5-0.3,2.3-0.3c0.9,0,1.8,0.1,2.6,0.3
		c0.8,0.2,1.5,0.5,2.2,1c0.6,0.4,1.1,1,1.5,1.7S15,5.6,15,6.6h-3.6c0-1-0.4-1.6-1-2C9.8,4.2,9,4,7.9,4C7.2,4,6.6,4.2,6.1,4.5
		C5.6,4.8,5.4,5.3,5.4,6c0,0.3,0.1,0.6,0.2,0.8C5.7,7,5.9,7.1,6.2,7.3C6.5,7.4,7,7.6,7.5,7.8C8,7.9,8.9,8.1,10.1,8.4
		c0,0,0.2,0,0.4,0.1c0,0,0.1,0,0.1,0c0.6,0.1,1.1,0.3,1.6,0.5c0.5,0.2,1,0.4,1.5,0.8c0.5,0.4,1,0.8,1.3,1.5c0.4,0.6,0.5,1.4,0.5,2.2
		c0,1.6-0.6,2.9-1.9,4c-1.2,1-3,1.5-5.2,1.5c-1,0-1.9-0.1-2.8-0.4C4.8,18.4,4,18,3.3,17.5c-0.7-0.5-1.2-1.1-1.6-1.9
		c-0.4-0.8-0.6-1.7-0.6-2.7H4.8z"/>
	<path id="XMLID_32_" d="M17.8,1.5h3.8v7.1l6.7-7.1h4.7l-6.7,6.7l7.3,10.3h-4.7l-5.1-7.7l-2.2,2.2v5.5h-3.8V1.5z"/>
	<path id="XMLID_34_" d="M35,1.5h3.8v17.1H35V1.5z"/>
	<path id="XMLID_36_" d="M42.1,1.5h5.3l4,11.7h0l3.8-11.7h5.3v17.1H57V6.5h0l-4.2,12.1h-2.9l-4.2-12h0v12h-3.5V1.5z"/>
	<path id="XMLID_38_" d="M63.8,1.5h5.3l4,11.7h0l3.8-11.7h5.3v17.1h-3.5V6.5h0l-4.2,12.1h-2.9l-4.2-12h0v12h-3.5V1.5z"/>
	<path id="XMLID_40_" d="M85.3,6.6c0.4-1.1,0.9-2.1,1.7-2.9c0.7-0.8,1.6-1.5,2.7-1.9c1-0.5,2.2-0.7,3.5-0.7s2.5,0.2,3.5,0.7
		s1.9,1.1,2.7,1.9c0.7,0.8,1.3,1.8,1.7,2.9c0.4,1.1,0.6,2.3,0.6,3.5c0,1.2-0.2,2.4-0.6,3.5c-0.4,1.1-0.9,2-1.7,2.8
		c-0.7,0.8-1.6,1.4-2.7,1.9S94.4,19,93.1,19s-2.5-0.2-3.5-0.7c-1-0.5-1.9-1.1-2.7-1.9c-0.7-0.8-1.3-1.8-1.7-2.8
		c-0.4-1.1-0.6-2.2-0.6-3.5C84.7,8.9,84.9,7.7,85.3,6.6z M88.8,12.3c0.2,0.7,0.4,1.3,0.8,1.8c0.4,0.5,0.9,1,1.4,1.3
		c0.6,0.3,1.3,0.5,2.1,0.5s1.5-0.2,2.1-0.5c0.6-0.3,1.1-0.7,1.4-1.3c0.4-0.5,0.6-1.1,0.8-1.8c0.2-0.7,0.3-1.4,0.3-2.1
		c0-0.8-0.1-1.5-0.3-2.2c-0.2-0.7-0.4-1.3-0.8-1.9s-0.8-1-1.4-1.3c-0.6-0.3-1.3-0.5-2.1-0.5S91.6,4.4,91,4.7
		c-0.6,0.3-1.1,0.8-1.4,1.3s-0.6,1.2-0.8,1.9c-0.2,0.7-0.3,1.4-0.3,2.2C88.5,10.9,88.6,11.6,88.8,12.3z"/>
	<path id="XMLID_43_" d="M108.8,1.5h3.9l6.4,17.1h-3.9l-1.3-3.8h-6.4l-1.3,3.8h-3.8L108.8,1.5z M108.4,12h4.4l-2.2-6.3h0L108.4,12z"
		/>
</g>
</svg>
