<?xml version="1.0" encoding="utf-8"?>
<!-- Generator: Adobe Illustrator 19.0.0, SVG Export Plug-In . SVG Version: 6.00 Build 0)  -->
<svg version="1.1" id="Layer_1" xmlns="http://www.w3.org/2000/svg" xmlns:xlink="http://www.w3.org/1999/xlink" x="0px" y="0px"
	 viewBox="0 0 302 49.4" style="enable-background:new 0 0 302 49.4;" xml:space="preserve">
<g id="XMLID_5_">
	<path id="XMLID_30_" d="M16.1,31.7c0,2.6,0.9,4.5,2.6,5.8s3.9,1.9,6.6,1.9c0.9,0,1.8-0.1,2.7-0.2c0.9-0.2,1.8-0.4,2.6-0.8
		c0.8-0.4,1.5-0.9,2-1.6c0.5-0.7,0.8-1.5,0.8-2.5c0-0.9-0.3-1.7-0.8-2.4c-0.5-0.6-1.2-1.2-2-1.6c-0.9-0.4-1.8-0.8-2.8-1.1
		c-1-0.3-2.4-0.7-4.1-1.1c-1.1-0.3-2-0.5-2.7-0.7c-1.8-0.5-3.4-1-4.8-1.6c-1.4-0.5-2.7-1.3-3.8-2.1c-1.1-0.9-2.1-2-2.7-3.3
		c-0.7-1.3-1-2.9-1-4.8c0-2.1,0.4-3.9,1.3-5.5c0.9-1.6,2.1-2.9,3.6-4c1.5-1,3.2-1.8,5-2.4s3.7-0.8,5.7-0.8c2.3,0,4.4,0.3,6.4,0.8
		c2,0.5,3.8,1.3,5.3,2.4c1.5,1.1,2.8,2.5,3.6,4.2s1.3,3.7,1.3,6.1h-8.9c-0.1-2.3-0.9-4-2.4-4.9c-1.5-0.9-3.4-1.4-5.9-1.4
		c-1.7,0-3.2,0.4-4.4,1.2c-1.2,0.8-1.9,2-1.9,3.6c0,0.8,0.2,1.5,0.5,2c0.3,0.5,0.9,0.9,1.6,1.3c0.8,0.4,1.8,0.7,3.1,1.1
		c1.3,0.4,3.4,1,6.3,1.7c0.1,0,0.4,0.1,0.9,0.2c0.1,0,0.2,0.1,0.3,0.1c1.4,0.3,2.7,0.7,3.9,1.2c1.2,0.4,2.4,1.1,3.7,2
		c1.3,0.9,2.4,2.1,3.2,3.6c0.9,1.5,1.3,3.3,1.3,5.4c0,4-1.5,7.2-4.6,9.7c-3,2.5-7.3,3.7-12.8,3.7c-2.4,0-4.6-0.3-6.7-0.9
		c-2.1-0.6-4-1.5-5.7-2.7c-1.7-1.2-3-2.8-3.9-4.7c-1-1.9-1.4-4.1-1.4-6.6H16.1z"/>
	<path id="XMLID_32_" d="M47.8,3.8h9.2v17.3L73.2,3.8h11.4L68.4,20.3l17.9,25.2H74.7L62.2,26.8l-5.3,5.3v13.4h-9.2V3.8z"/>
	<path id="XMLID_34_" d="M89.9,3.8h9.2v41.7h-9.2V3.8z"/>
	<path id="XMLID_36_" d="M107.1,3.8H120l9.7,28.7h0.1l9.2-28.7H152v41.7h-8.6V16h-0.1l-10.2,29.5H126l-10.2-29.2h-0.1v29.2h-8.6V3.8
		z"/>
	<path id="XMLID_38_" d="M160,3.8h12.9l9.7,28.7h0.1L192,3.8h12.9v41.7h-8.6V16h-0.1L186,45.5h-7.1l-10.2-29.2h-0.1v29.2H160V3.8z"
		/>
	<path id="XMLID_40_" d="M212.6,16.2c0.9-2.7,2.3-5,4.1-7c1.8-2,3.9-3.6,6.5-4.7c2.5-1.1,5.4-1.7,8.5-1.7c3.2,0,6,0.6,8.5,1.7
		s4.7,2.7,6.5,4.7c1.8,2,3.1,4.3,4.1,7c0.9,2.7,1.4,5.6,1.4,8.6c0,3-0.5,5.8-1.4,8.4c-0.9,2.6-2.3,4.9-4.1,6.9c-1.8,2-4,3.5-6.5,4.6
		s-5.4,1.7-8.5,1.7c-3.2,0-6-0.6-8.5-1.7c-2.6-1.1-4.7-2.6-6.5-4.6c-1.8-2-3.1-4.3-4.1-6.9c-0.9-2.6-1.4-5.5-1.4-8.5
		C211.2,21.8,211.6,18.9,212.6,16.2z M221,30.1c0.4,1.7,1.1,3.1,2,4.5c0.9,1.3,2.1,2.4,3.5,3.1c1.4,0.8,3.2,1.1,5.1,1.1
		c2,0,3.7-0.4,5.2-1.2c1.5-0.8,2.6-1.8,3.5-3.1c0.9-1.3,1.6-2.8,2-4.4c0.4-1.7,0.6-3.4,0.6-5.2c0-1.9-0.2-3.7-0.6-5.4
		c-0.4-1.7-1.1-3.2-2-4.6c-0.9-1.3-2.1-2.4-3.5-3.2c-1.5-0.8-3.2-1.2-5.2-1.2c-2,0-3.7,0.4-5.2,1.2c-1.5,0.8-2.6,1.8-3.5,3.2
		s-1.6,2.8-2,4.6c-0.4,1.7-0.6,3.5-0.6,5.4C220.3,26.7,220.5,28.4,221,30.1z"/>
	<path id="XMLID_43_" d="M269.7,3.8h9.4l15.6,41.7h-9.5l-3.2-9.3h-15.6l-3.3,9.3h-9.3L269.7,3.8z M268.9,29.4h10.8l-5.3-15.3h-0.1
		L268.9,29.4z"/>
</g>
<g id="XMLID_50_">
	<path id="XMLID_65_" d="M329.2,32.2c0,1,0.2,1.9,0.5,2.7c0.4,1.1,1.2,1.9,2.3,2.4c1.1,0.4,2.4,0.7,3.8,0.7c0.6,0,1.2-0.1,1.8-0.2
		c0.6-0.1,1.2-0.3,1.7-0.6c0.5-0.3,1-0.7,1.3-1.2c0.3-0.5,0.5-1.1,0.5-1.9c0-0.5-0.1-1-0.4-1.4c-0.3-0.4-0.7-0.7-1.4-1.1
		c-0.6-0.3-1.5-0.7-2.6-1c-1.1-0.3-2.6-0.8-4.6-1.3l-0.7-0.2c-2.3-0.7-4.1-1.2-5.4-1.7c-1.3-0.5-2.6-1.2-3.9-2c-1.2-0.9-2.2-2-3-3.3
		c-0.8-1.3-1.1-3-1.1-4.9c0-2.3,0.5-4.3,1.4-6.1c0.9-1.8,2.2-3.2,3.7-4.3c1.6-1.1,3.4-2,5.4-2.5c2-0.5,4.1-0.8,6.3-0.8
		c2.4,0,4.6,0.2,6.6,0.7s3.8,1.3,5.4,2.3c1.6,1.1,2.9,2.5,3.8,4.2c1,1.7,1.5,3.9,1.5,6.3h-12.1c0-0.1,0-0.2,0-0.3
		c0-0.2,0.1-0.3,0.1-0.3c0-1.1-0.5-2-1.6-2.7c-0.5-0.3-1.1-0.6-1.7-0.8c-0.7-0.2-1.3-0.3-2-0.3c-1.2,0-2.2,0.2-3.2,0.6
		c-1,0.4-1.4,1.1-1.4,2.2c0.1,1,0.8,1.9,2.1,2.4c1.3,0.6,3.4,1.2,6.2,1.9c1.8,0.4,3,0.7,3.7,0.9c1.7,0.5,3.2,1,4.5,1.6
		c1.3,0.6,2.6,1.3,3.6,2.2c1.1,0.9,2,2.1,2.6,3.4c0.6,1.4,1,3,1,4.8c0,2.6-0.5,4.8-1.6,6.7c-1.1,1.8-2.6,3.3-4.4,4.5
		c-1.8,1.1-3.9,1.9-6.2,2.5c-2.3,0.5-4.6,0.8-7.1,0.8c-1.6,0-3.3-0.2-5.3-0.6c-2-0.4-3.9-1.1-6-2.1c-2-1-3.7-2.6-5-4.6
		c-1.3-2-2-4.6-2.1-7.7H329.2z"/>
	<path id="XMLID_63_" d="M358.3,4.5h12.8v14.4h0.1l11.4-14.4h15.8l-15.1,16.3l17.6,25.4h-16L374.7,30l-3.6,3.9v12.3h-12.8V4.5z"/>
	<path id="XMLID_61_" d="M403.3,4.5h12.8v41.7h-12.8V4.5z"/>
	<path id="XMLID_59_" d="M422.7,4.5H441l6,24.5h0.1l6-24.5h18.3v41.7h-12.1V19.5H459l-7.2,26.7h-9.6l-7.2-26.7h-0.1v26.7h-12.1V4.5z
		"/>
	<path id="XMLID_57_" d="M477.8,4.5H496l6,24.5h0.1l6-24.5h18.3v41.7h-12.1V19.5h-0.1l-7.2,26.7h-9.6L490,19.5h-0.1v26.7h-12.1V4.5z
		"/>
	<path id="XMLID_54_" d="M533.2,16.6c1-2.7,2.5-5,4.3-6.9c1.9-1.9,4.1-3.4,6.7-4.5c2.6-1.1,5.5-1.6,8.6-1.6s6,0.5,8.6,1.6
		c2.6,1.1,4.8,2.6,6.7,4.5c1.9,1.9,3.3,4.3,4.3,6.9c1,2.7,1.5,5.6,1.5,8.8s-0.5,6.1-1.5,8.8c-1,2.7-2.5,5-4.3,6.9
		c-1.9,1.9-4.1,3.5-6.7,4.5c-2.6,1.1-5.5,1.6-8.6,1.6s-6-0.5-8.6-1.6c-2.6-1.1-4.8-2.6-6.7-4.5c-1.9-1.9-3.3-4.3-4.3-6.9
		c-1-2.7-1.5-5.6-1.5-8.8S532.2,19.3,533.2,16.6z M545.3,30.9c0.5,1.5,1.2,2.7,2,3.6c0.8,0.9,1.7,1.5,2.7,1.8
		c0.9,0.4,1.9,0.5,2.8,0.5s1.9-0.2,2.8-0.5c0.9-0.3,1.8-1,2.7-1.8c0.8-0.9,1.5-2,2-3.6s0.8-3.4,0.8-5.5c0-2.2-0.3-4-0.8-5.5
		s-1.2-2.7-2-3.6c-0.8-0.9-1.7-1.5-2.7-1.8c-0.9-0.4-1.9-0.5-2.8-0.5s-1.9,0.2-2.8,0.5c-0.9,0.3-1.8,1-2.7,1.8c-0.8,0.9-1.5,2-2,3.6
		s-0.8,3.4-0.8,5.5C544.5,27.5,544.8,29.4,545.3,30.9z"/>
	<path id="XMLID_51_" d="M590.9,4.5h12.5l15.2,41.7h-13.3l-1.7-6h-13.2l-1.9,6h-12.9L590.9,4.5z M601,31.3l-3.7-12.8h-0.1l-4,12.8
		H601z"/>
</g>
</svg>
